<?xml version="1.0" encoding="utf-8"?>
<!-- Generator: Adobe Illustrator 26.3.1, SVG Export Plug-In . SVG Version: 6.00 Build 0)  -->
<svg version="1.1" id="Layer_1" xmlns="http://www.w3.org/2000/svg" xmlns:xlink="http://www.w3.org/1999/xlink" x="0px" y="0px"
	 viewBox="0 0 1527 659.72" style="enable-background:new 0 0 1527 659.72;" xml:space="preserve">
<g>
	<path d="M629.08,494.72c0.09-19.09-3.42-39.16-4.55-54.95c-4.97-69.16-4.17-136.29-21.67-204.18
		C586.43,171.85,545.9,99.26,473.11,92.33c-48.07-4.58-86.16,20.02-116.02,54.12c-41.59-45.87-96.46-73.5-166.1-62.73
		C99.33,97.88,67.27,183.67,57.14,265.05c-13.39,107.62-7.49,216.1,13.81,322.29c9.57,47.74,82.58,27.53,73.02-20.13
		c-13.08-65.24-19.39-131.28-18.4-197.84c0.8-53.46,0.66-116.45,22.93-166.25c22.75-50.87,80.44-56.94,124.53-28.82
		c15.46,9.86,28.66,22.71,40.06,37.27c-2.91,5.38-5.7,10.72-8.33,15.97c-36.3,72.33-66.85,161.58-60.9,243.66
		c4.98,68.8,58.23,140.51,135.15,125.4c81.46-16.01,84.85-114.72,80.44-180.38c-4.21-62.65-23.13-141.63-58.71-207.16
		c16.01-22.42,35.45-39.94,58.34-41.42c55.29-3.58,71.94,87.34,78.75,126.09c12.89,73.33,11.38,148.68,10.65,222.85
		c-0.23,22.86,24.64,45.21,47.92,36.51C622.6,543.29,628.95,519.85,629.08,494.72z M383.24,486.01
		c-2.48,17.6-7.09,39.35-28.79,35.78c-27.54-4.52-34.66-38.95-35.42-61.7c-1.84-55.24,16.53-115.22,37.86-165.67
		c1.65,4.5,3.24,9,4.73,13.44C380.18,363.35,391.48,427.45,383.24,486.01z"/>
	<path d="M866.78,429.58c-35.25,33.73-93.61,13.76-117.02-24.22c-1.68-2.72-3.2-5.53-4.64-8.4
		c77.87,15.93,162.63-25.02,178.07-112.93c17.67-100.62-96.4-187.53-185.88-128.79c-84.48,55.46-102.4,194.27-57.91,279.42
		c45.33,86.76,167.08,119.12,240.91,48.45C955.6,449.36,902,395.86,866.78,429.58z M756.6,242.38
		c13.41-21.07,33.79-36.79,59.38-27.42c22.69,8.3,36.24,30.05,33.1,53.93c-7.96,60.46-72.47,65.84-116.49,42.65
		C735.73,286.42,744.08,262.04,756.6,242.38z"/>
	<path d="M936.58,187.16c-13.74,82.24,52.59,141.77,110.23,187.76c26.02,20.76,57.99,44.23,69.23,77
		c16.45,47.97-48.54,29.05-63.31,2.15c-23.45-42.73-88.86-4.57-65.38,38.22c31.88,58.09,111.63,87.44,169.91,48.75
		c67.16-44.58,31.84-132.76-11.61-179.6c-39.64-42.73-143.25-89.78-134.73-159.22c7.04-57.41,148.11-82.12,147.46-21.65
		c-0.52,48.74,75.2,48.78,75.72,0C1235.82,20.17,959.82,48.07,936.58,187.16z"/>
	<path d="M1362.77,266.93c25.22-4.56,48.37,4.39,65.34,22.85c33.06,35.95,86.5-17.71,53.54-53.54
		c-71.15-77.36-241.09-50.71-238.21,73.23c1.34,57.63,50.35,91.51,93.29,120.71c15.91,10.82,52.85,35.69,36.89,58.93
		c-19.07,27.78-60.24,5.04-78.5-10.67c-36.76-31.64-90.56,21.69-53.54,53.54c42.91,36.93,101.27,60.75,155.71,32.89
		c50.26-25.72,70.78-85.73,43.29-135.73c-12.59-22.9-32.72-40.59-53.48-55.87c-20.42-15.04-51.67-28.56-63.69-52.34
		C1309.9,294.21,1338.42,271.33,1362.77,266.93z"/>
</g>
</svg>
